<?xml version="1.0" standalone="no"?>
<!DOCTYPE svg PUBLIC "-//W3C//DTD SVG 20010904//EN"
 "http://www.w3.org/TR/2001/REC-SVG-20010904/DTD/svg10.dtd">
<svg version="1.0" xmlns="http://www.w3.org/2000/svg"
 width="476.000000pt" height="476.000000pt" viewBox="0 0 476.000000 476.000000"
 preserveAspectRatio="xMidYMid meet">
<metadata>
Created by potrace 1.14, written by Peter Selinger 2001-2017
</metadata>
<g transform="translate(0.000000,476.000000) scale(0.100000,-0.100000)"
fill="#000000" stroke="none">
<path d="M1495 4129 c-297 -15 -455 -72 -604 -219 -117 -115 -172 -217 -212
-396 -22 -98 -23 -111 -27 -1029 -4 -974 1 -1114 38 -1262 66 -255 273 -465
521 -527 157 -39 207 -41 1179 -41 972 0 1022 2 1179 41 136 34 282 128 375
240 104 127 156 266 175 475 14 144 14 1825 1 1962 -13 129 -43 254 -81 333
-41 87 -133 200 -210 259 -146 110 -286 151 -574 165 -212 11 -1543 10 -1760
-1z m1910 -802 c83 -68 150 -128 150 -135 0 -14 -1144 -1372 -1155 -1372 -9 0
-784 628 -788 638 -1 6 181 230 254 311 2 3 399 -316 460 -371 20 -18 23 -16
470 516 247 294 451 535 454 535 3 0 73 -55 155 -122z m209 -974 c-15 -208
-49 -343 -124 -498 -149 -310 -423 -548 -751 -653 -247 -79 -507 -79 -767 -1
-78 24 -275 119 -314 152 l-27 22 66 91 66 92 47 -29 c191 -117 433 -174 644
-149 244 28 451 127 621 295 171 168 270 380 297 633 l12 112 118 0 117 0 -5
-67z"/>
</g>
</svg>
